<?xml version="1.0" encoding="UTF-8"?>
<!DOCTYPE svg PUBLIC "-//W3C//DTD SVG 1.1//EN" "http://www.w3.org/Graphics/SVG/1.1/DTD/svg11.dtd">
<!-- Creator: CorelDRAW 2017 -->
<svg xmlns="http://www.w3.org/2000/svg" xml:space="preserve" width="1080px" height="1080px" version="1.1" style="shape-rendering:geometricPrecision; text-rendering:geometricPrecision; image-rendering:optimizeQuality; fill-rule:evenodd; clip-rule:evenodd"
viewBox="0 0 1080 1080"
 xmlns:xlink="http://www.w3.org/1999/xlink">
 <defs>
  <style type="text/css">
   <![CDATA[
    .fil0 {fill:none}
    .fil1 {fill:#D40031;fill-rule:nonzero}
   ]]>
  </style>
 </defs>
 <g id="Слой_x0020_1">
  <metadata id="CorelCorpID_0Corel-Layer"/>
  <rect class="fil0" x="86.51" y="330.17" width="909.26" height="416.92"/>
  <polygon class="fil1" points="201.9,468.74 226.77,468.74 226.77,513.47 272.64,513.47 272.64,468.74 297.51,468.74 297.51,581.78 272.64,581.78 272.64,536.4 226.77,536.4 226.77,581.78 201.9,581.78 "/>
  <path class="fil1" d="M363.39 467.93l22.93 0 48.45 113.85 -26 0 -10.34 -25.35 -47.8 0 -10.33 25.35 -25.36 0 48.45 -113.85zm26.16 66.54l0 0 -15.02 -36.66 -15.02 36.66 30.04 0z"/>
  <path class="fil1" d="M452.2 468.74l46.19 0c26.97,0 43.28,15.99 43.28,39.4 0,26.16 -20.35,39.73 -45.7,39.73l-18.9 0 0 33.91 -24.87 0 0 -113.04zm44.58 57.01l0 0c12.43,0 19.7,-7.43 19.7,-17.45 0,-11.14 -7.75,-17.11 -20.19,-17.11l-19.22 0 0 34.56 19.71 0z"/>
  <polygon class="fil1" points="587.7,524.29 534.27,444.08 563.34,444.08 602.71,505.4 626.61,468.74 654.88,468.74 617.09,523.97 690.52,632.59 661.45,632.59 602.07,543.03 576.55,581.78 548.29,581.78 "/>
  <path class="fil1" d="M661.98 525.26c0,-32.14 25.35,-58.46 60.24,-58.46 34.88,0 59.91,26 59.91,58.46 0,32.14 -25.36,58.46 -60.24,58.46 -34.88,0 -59.91,-26 -59.91,-58.46zm94.15 0l0 0c0,-19.38 -14.21,-35.53 -34.24,-35.53 -20.02,0 -33.91,15.83 -33.91,35.53 0,19.38 14.21,35.53 34.24,35.53 20.02,0 33.91,-15.83 33.91,-35.53z"/>
  <path class="fil1" d="M880.47 497.16c0,14.05 -8.23,21.64 -18.25,26 12.12,3.88 21.16,12.28 21.16,26.65 0,19.54 -16.64,33.91 -42.96,33.91 -23.74,0 -38.11,-6.62 -50.22,-18.89l13.24 -17.28c9.2,9.04 21.32,14.37 36.01,14.37 10.5,0 19.06,-4.84 19.06,-13.57 0,-9.36 -9.53,-13.24 -22.45,-13.24l-13.08 0 0 -20.67 12.76 0c13.08,0 20.18,-4.52 20.18,-13.08 0,-7.91 -7.42,-12.6 -18.24,-12.6 -13.89,0 -22.94,4.69 -30.53,12.44l-13.08 -15.83c10.5,-10.98 24.07,-18.57 45.54,-18.57 24.23,0 40.86,12.76 40.86,30.36z"/>
  <g id="_2175288684624">
   <path class="fil1" d="M202.93 630.21l2.48 -4.84c1.47,0.84 2.89,1.16 4.52,1.16 1.63,0 3.95,-1 5.79,-4l-15.37 -27.9 7.27 0 11.47 21.42 10.11 -21.42 7 0 -14.37 28.79c-3.11,6.26 -6.9,8.63 -11.69,8.63 -2.84,0 -5.05,-0.68 -7.21,-1.84z"/>
   <polygon class="fil1" points="242.3,594.63 248.77,594.63 248.77,609.95 266.35,609.95 266.35,594.63 272.82,594.63 272.82,631.47 266.35,631.47 266.35,615.95 248.77,615.95 248.77,631.47 242.3,631.47 "/>
   <polygon class="fil1" points="282.29,594.63 288.66,594.63 288.66,621.53 307.29,594.63 313.35,594.63 313.35,631.47 306.98,631.47 306.98,604.63 288.4,631.47 282.29,631.47 "/>
   <path class="fil1" d="M322.87 594.63l16.52 0c4.22,0 7.53,1.16 9.64,3.26 1.63,1.64 2.47,3.64 2.47,6.22 0,4.42 -2.53,6.79 -5.26,8.21 4.31,1.47 7.31,3.94 7.31,9.05 0,6.58 -5.42,10.1 -13.63,10.1l-17.05 0 0 -36.84zm15.21 15.53l0 0c4.16,0 6.95,-1.63 6.95,-5.11 0,-2.89 -2.32,-4.68 -6.48,-4.68l-9.31 0 0 9.79 8.84 0zm1.89 15.58l0 0c4.43,0 7.11,-1.74 7.11,-5.16 0,-3.11 -2.47,-4.95 -7.58,-4.95l-10.26 0 0 10.11 10.73 0z"/>
   <polygon class="fil1" points="360.86,594.63 388.18,594.63 388.18,600.42 367.34,600.42 367.34,610 385.81,610 385.81,615.79 367.34,615.79 367.34,625.68 388.44,625.68 388.44,631.47 360.86,631.47 "/>
   <path class="fil1" d="M396.12 594.63l14.53 0c8.58,0 14,4.9 14,12.42 0,8.27 -6.63,12.58 -14.74,12.58l-7.31 0 0 11.84 -6.48 0 0 -36.84zm14 19.16l0 0c4.9,0 7.95,-2.74 7.95,-6.68 0,-4.32 -3.1,-6.58 -7.95,-6.58l-7.52 0 0 13.26 7.52 0z"/>
   <path class="fil1" d="M429.65 613.05c0,-10.47 7.84,-19.05 19,-19.05 6.79,0 10.89,2.37 14.42,5.74l-4.16 4.79c-2.95,-2.74 -6.1,-4.58 -10.32,-4.58 -7.05,0 -12.15,5.79 -12.15,13.1 0,7.21 5.1,13.11 12.15,13.11 4.53,0 7.43,-1.84 10.58,-4.79l4.16 4.21c-3.84,4 -8.05,6.53 -14.95,6.53 -10.73,0 -18.73,-8.37 -18.73,-19.06z"/>
   <polygon class="fil1" points="470.12,594.63 476.49,594.63 476.49,621.53 495.12,594.63 501.17,594.63 501.17,631.47 494.8,631.47 494.8,604.63 476.22,631.47 470.12,631.47 "/>
   <polygon class="fil1" points="519.74,600.63 508.06,600.63 508.06,594.63 537.96,594.63 537.96,600.63 526.27,600.63 526.27,631.47 519.74,631.47 "/>
   <polygon class="fil1" points="544.79,594.63 572.11,594.63 572.11,600.42 551.27,600.42 551.27,610 569.74,610 569.74,615.79 551.27,615.79 551.27,625.68 572.37,625.68 572.37,631.47 544.79,631.47 "/>
   <polygon class="fil1" points="589.1,600.63 577.42,600.63 577.42,594.63 607.32,594.63 607.32,600.63 595.63,600.63 595.63,631.47 589.1,631.47 "/>
   <polygon class="fil1" points="614.52,594.63 621,594.63 621,631.47 614.52,631.47 "/>
  </g>
 </g>
</svg>
